<svg width="617" height="696" viewBox="0 0 617 696" fill="none" xmlns="http://www.w3.org/2000/svg">
<mask id="path-1-inside-1_9_40" fill="white">
<path fill-rule="evenodd" clip-rule="evenodd" d="M422.091 19.6756C425.915 8.05341 428.305 3.56486 431.412 1.6412C433.882 0.1183 435.794 0.038147 494.827 0.038147C553.78 0.038147 555.772 0.1183 558.162 1.6412C561.508 3.64502 563.42 7.33204 567.722 19.5954C570.67 28.2519 571.785 30.4962 574.573 33.3015C576.406 35.145 579.274 37.0687 580.867 37.6298C581.325 37.7614 582.135 37.887 583.195 38H604C611.18 38 617 43.8203 617 51V683C617 690.18 611.18 696 604 696H0V51C0 43.8203 5.8203 38 13 38H407.096C409.862 37.678 410.872 37.1242 412.77 35.8664C417.072 32.9809 418.586 30.3359 422.091 19.6756Z"/>
</mask>
<path fill-rule="evenodd" clip-rule="evenodd" d="M422.091 19.6756C425.915 8.05341 428.305 3.56486 431.412 1.6412C433.882 0.1183 435.794 0.038147 494.827 0.038147C553.78 0.038147 555.772 0.1183 558.162 1.6412C561.508 3.64502 563.42 7.33204 567.722 19.5954C570.67 28.2519 571.785 30.4962 574.573 33.3015C576.406 35.145 579.274 37.0687 580.867 37.6298C581.325 37.7614 582.135 37.887 583.195 38H604C611.18 38 617 43.8203 617 51V683C617 690.18 611.18 696 604 696H0V51C0 43.8203 5.8203 38 13 38H407.096C409.862 37.678 410.872 37.1242 412.77 35.8664C417.072 32.9809 418.586 30.3359 422.091 19.6756Z" fill="#D9D9D9"/>
<path d="M431.412 1.6412L430.887 0.790019L430.886 0.790968L431.412 1.6412ZM422.091 19.6756L421.141 19.363L421.141 19.3632L422.091 19.6756ZM558.162 1.6412L557.625 2.48455L557.636 2.492L557.648 2.49912L558.162 1.6412ZM567.722 19.5954L568.669 19.273L568.666 19.2644L567.722 19.5954ZM574.573 33.3015L573.864 34.0065L573.864 34.0065L574.573 33.3015ZM580.867 37.6298L580.535 38.573L580.563 38.5827L580.591 38.5908L580.867 37.6298ZM583.195 38L583.089 38.9944L583.142 39H583.195V38ZM0 696H-1V697H0V696ZM407.096 38V39H407.154L407.212 38.9933L407.096 38ZM412.77 35.8664L413.323 36.7L413.327 36.6969L412.77 35.8664ZM430.886 0.790968C429.119 1.8852 427.64 3.66327 426.133 6.56012C424.63 9.45081 423.057 13.5425 421.141 19.363L423.041 19.9881C424.95 14.1865 426.483 10.2228 427.908 7.48277C429.329 4.7489 430.599 3.32087 431.939 2.49143L430.886 0.790968ZM494.827 -0.961853C465.319 -0.961853 450.065 -0.941907 441.883 -0.731082C433.778 -0.522245 432.393 -0.138065 430.887 0.79002L431.937 2.49238C432.902 1.89757 433.708 1.48022 441.934 1.26825C450.084 1.05828 465.302 1.03815 494.827 1.03815V-0.961853ZM558.699 0.797856C557.227 -0.140255 555.828 -0.522458 547.731 -0.731082C539.549 -0.941907 524.296 -0.961853 494.827 -0.961853V1.03815C524.312 1.03815 539.531 1.05828 547.68 1.26825C555.915 1.48043 556.707 1.89976 557.625 2.48455L558.699 0.797856ZM568.666 19.2644C566.516 13.1373 564.941 9.08278 563.467 6.30261C561.976 3.4891 560.55 1.90545 558.676 0.783279L557.648 2.49912C559.12 3.38076 560.323 4.64254 561.7 7.23934C563.094 9.86947 564.626 13.7901 566.778 19.9264L568.666 19.2644ZM575.283 32.5966C572.672 29.9705 571.616 27.9284 568.669 19.2731L566.775 19.9177C569.723 28.5753 570.898 31.0218 573.864 34.0065L575.283 32.5966ZM581.199 36.6865C580.524 36.4487 579.492 35.884 578.373 35.1205C577.268 34.3659 576.144 33.4636 575.283 32.5966L573.864 34.0065C574.835 34.9829 576.062 35.9642 577.246 36.7725C578.418 37.5721 579.617 38.2498 580.535 38.573L581.199 36.6865ZM583.301 37.0056C582.24 36.8925 581.508 36.7736 581.143 36.6687L580.591 38.5908C581.141 38.7491 582.03 38.8814 583.089 38.9944L583.301 37.0056ZM583.195 39H604V37H583.195V39ZM604 39C610.627 39 616 44.3726 616 51H618C618 43.268 611.732 37 604 37V39ZM616 51V683H618V51H616ZM616 683C616 689.627 610.627 695 604 695V697C611.732 697 618 690.732 618 683H616ZM604 695H0V697H604V695ZM1 696V51H-1V696H1ZM1 51C1 44.3726 6.37258 39 13 39V37C5.26801 37 -1 43.268 -1 51H1ZM13 39H407.096V37H13V39ZM412.218 35.0328C411.272 35.6597 410.618 36.0617 409.885 36.3563C409.161 36.6476 408.312 36.8517 406.98 37.0067L407.212 38.9933C408.646 38.8263 409.685 38.5925 410.631 38.212C411.57 37.8347 412.371 37.3309 413.323 36.7L412.218 35.0328ZM421.141 19.3632C419.386 24.7011 418.159 27.9343 416.863 30.1879C415.6 32.3836 414.264 33.6603 412.213 35.0359L413.327 36.6969C415.578 35.187 417.151 33.6984 418.596 31.1851C420.009 28.7298 421.291 25.3103 423.041 19.9879L421.141 19.3632Z" fill="black" mask="url(#path-1-inside-1_9_40)"/>
</svg>
