<svg width="617" height="696" viewBox="0 0 617 696" fill="none" xmlns="http://www.w3.org/2000/svg">
<mask id="path-1-inside-1_34_401" fill="white">
<path fill-rule="evenodd" clip-rule="evenodd" d="M234.091 19.6374C237.915 8.01527 240.305 3.52672 243.412 1.60305C245.882 0.0801527 247.794 0 306.827 0C365.78 0 367.772 0.0801527 370.162 1.60305C373.508 3.60687 375.42 7.29389 379.722 19.5573C382.67 28.2137 383.785 30.458 386.573 33.2634C388.406 35.1069 391.274 37.0305 392.867 37.5916C393.325 37.7232 394.135 37.8488 395.195 37.9618H604C611.18 37.9618 617 43.7821 617 50.9618V682.962C617 690.142 611.18 695.962 604 695.962H0V50.9618C0 43.7821 5.8203 37.9618 13 37.9618H219.096C221.862 37.6398 222.872 37.086 224.77 35.8282C229.072 32.9427 230.586 30.2977 234.091 19.6374Z"/>
</mask>
<path fill-rule="evenodd" clip-rule="evenodd" d="M234.091 19.6374C237.915 8.01527 240.305 3.52672 243.412 1.60305C245.882 0.0801527 247.794 0 306.827 0C365.78 0 367.772 0.0801527 370.162 1.60305C373.508 3.60687 375.42 7.29389 379.722 19.5573C382.67 28.2137 383.785 30.458 386.573 33.2634C388.406 35.1069 391.274 37.0305 392.867 37.5916C393.325 37.7232 394.135 37.8488 395.195 37.9618H604C611.18 37.9618 617 43.7821 617 50.9618V682.962C617 690.142 611.18 695.962 604 695.962H0V50.9618C0 43.7821 5.8203 37.9618 13 37.9618H219.096C221.862 37.6398 222.872 37.086 224.77 35.8282C229.072 32.9427 230.586 30.2977 234.091 19.6374Z" fill="#D9D9D9"/>
<path d="M243.412 1.60305L242.887 0.751872L242.886 0.752823L243.412 1.60305ZM234.091 19.6374L233.141 19.3249L233.141 19.325L234.091 19.6374ZM370.162 1.60305L369.625 2.4464L369.636 2.45385L369.648 2.46097L370.162 1.60305ZM379.722 19.5573L380.669 19.2349L380.666 19.2262L379.722 19.5573ZM386.573 33.2634L385.864 33.9683L386.573 33.2634ZM392.867 37.5916L392.535 38.5348L392.563 38.5446L392.591 38.5527L392.867 37.5916ZM395.195 37.9618L395.089 38.9562L395.142 38.9618H395.195V37.9618ZM0 695.962H-1V696.962H0V695.962ZM219.096 37.9618V38.9618H219.154L219.212 38.9551L219.096 37.9618ZM224.77 35.8282L225.323 36.6619L225.327 36.6587L224.77 35.8282ZM242.886 0.752823C241.119 1.84705 239.64 3.62512 238.133 6.52198C236.63 9.41266 235.057 13.5044 233.141 19.3249L235.041 19.9499C236.95 14.1483 238.483 10.1847 239.908 7.44463C241.329 4.71076 242.599 3.28272 243.939 2.45328L242.886 0.752823ZM306.827 -1C277.319 -1 262.065 -0.980054 253.883 -0.769229C245.777 -0.560392 244.393 -0.176212 242.887 0.751873L243.937 2.45423C244.902 1.85942 245.708 1.44207 253.934 1.23011C262.084 1.02013 277.302 1 306.827 1V-1ZM370.699 0.759709C369.227 -0.178403 367.828 -0.560605 359.732 -0.769229C351.549 -0.980054 336.296 -1 306.827 -1V1C336.312 1 351.531 1.02013 359.68 1.23011C367.915 1.44228 368.707 1.86161 369.625 2.4464L370.699 0.759709ZM380.666 19.2262C378.516 13.0992 376.941 9.04463 375.467 6.26446C373.976 3.45096 372.55 1.86731 370.676 0.745134L369.648 2.46097C371.12 3.34261 372.323 4.60438 373.7 7.20119C375.094 9.83132 376.626 13.752 378.778 19.8883L380.666 19.2262ZM387.283 32.5584C384.672 29.9323 383.616 27.8903 380.669 19.2349L378.775 19.8796C381.723 28.5372 382.898 30.9837 385.864 33.9683L387.283 32.5584ZM393.199 36.6484C392.524 36.4105 391.492 35.8458 390.373 35.0824C389.268 34.3278 388.144 33.4255 387.283 32.5584L385.864 33.9683C386.835 34.9448 388.062 35.926 389.246 36.7344C390.418 37.5339 391.617 38.2116 392.535 38.5348L393.199 36.6484ZM395.301 36.9674C394.24 36.8543 393.508 36.7355 393.143 36.6305L392.591 38.5527C393.141 38.7109 394.029 38.8432 395.089 38.9562L395.301 36.9674ZM395.195 38.9618H604V36.9618H395.195V38.9618ZM604 38.9618C610.627 38.9618 616 44.3344 616 50.9618H618C618 43.2298 611.732 36.9618 604 36.9618V38.9618ZM616 50.9618V682.962H618V50.9618H616ZM616 682.962C616 689.589 610.627 694.962 604 694.962V696.962C611.732 696.962 618 690.694 618 682.962H616ZM604 694.962H0V696.962H604V694.962ZM1 695.962V50.9618H-1V695.962H1ZM1 50.9618C1 44.3344 6.37258 38.9618 13 38.9618V36.9618C5.26801 36.9618 -1 43.2298 -1 50.9618H1ZM13 38.9618H219.096V36.9618H13V38.9618ZM224.218 34.9946C223.272 35.6215 222.618 36.0235 221.885 36.3181C221.161 36.6094 220.312 36.8135 218.981 36.9685L219.212 38.9551C220.646 38.7881 221.685 38.5543 222.631 38.1738C223.57 37.7965 224.371 37.2927 225.323 36.6619L224.218 34.9946ZM233.141 19.325C231.386 24.663 230.159 27.8961 228.863 30.1498C227.6 32.3455 226.264 33.6221 224.213 34.9978L225.327 36.6587C227.578 35.1489 229.151 33.6602 230.596 31.147C232.009 28.6917 233.291 25.2721 235.041 19.9498L233.141 19.325Z" fill="black" mask="url(#path-1-inside-1_34_401)"/>
<path d="M253.48 23.1057C253 23.1057 252.595 23.031 252.264 22.8817C251.944 22.7323 251.699 22.5137 251.528 22.2257C251.357 21.9377 251.272 21.591 251.272 21.1857C251.272 20.8017 251.373 20.4603 251.576 20.1617C251.779 19.863 252.077 19.607 252.472 19.3937C252.152 19.1803 251.907 18.9617 251.736 18.7377C251.565 18.503 251.48 18.183 251.48 17.7777C251.48 17.2337 251.667 16.8017 252.04 16.4817C252.413 16.151 252.893 15.9857 253.48 15.9857C254.056 15.9857 254.525 16.1457 254.888 16.4657C255.251 16.775 255.432 17.1963 255.432 17.7297C255.432 18.0603 255.336 18.359 255.144 18.6257C254.963 18.8923 254.685 19.1323 254.312 19.3457C254.76 19.5483 255.096 19.799 255.32 20.0977C255.544 20.3963 255.656 20.743 255.656 21.1377C255.656 21.735 255.453 22.215 255.048 22.5777C254.653 22.9297 254.131 23.1057 253.48 23.1057ZM249.16 22.9617V17.7937C249.16 17.6763 249.165 17.5643 249.176 17.4577C249.187 17.3403 249.192 17.2283 249.192 17.1217C249.149 17.1643 249.085 17.2177 249 17.2817C248.925 17.3457 248.84 17.4203 248.744 17.5057C248.637 17.6017 248.504 17.7083 248.344 17.8257C248.184 17.943 248.008 18.0763 247.816 18.2257L247.272 17.4417L249.096 16.1137H250.248V22.9617H249.16ZM253.448 22.2097C253.832 22.2097 254.12 22.119 254.312 21.9377C254.515 21.7457 254.616 21.495 254.616 21.1857C254.616 20.9083 254.525 20.6737 254.344 20.4817C254.173 20.279 253.885 20.0923 253.48 19.9217L253.256 19.8257C252.947 19.9963 252.712 20.1937 252.552 20.4177C252.403 20.6417 252.328 20.8977 252.328 21.1857C252.328 21.495 252.419 21.7457 252.6 21.9377C252.792 22.119 253.075 22.2097 253.448 22.2097ZM253.496 18.9137C253.805 18.775 254.035 18.6097 254.184 18.4177C254.333 18.2257 254.408 18.007 254.408 17.7617C254.408 17.4843 254.317 17.2657 254.136 17.1057C253.965 16.9457 253.741 16.8657 253.464 16.8657C253.176 16.8657 252.947 16.9457 252.776 17.1057C252.605 17.2657 252.52 17.4843 252.52 17.7617C252.52 17.9963 252.6 18.2097 252.76 18.4017C252.931 18.5937 253.176 18.7643 253.496 18.9137ZM251.592 26.1457C250.685 26.1457 249.832 25.975 249.032 25.6337C248.232 25.2923 247.528 24.823 246.92 24.2257C246.323 23.6177 245.853 22.9137 245.512 22.1137C245.171 21.3137 245 20.4603 245 19.5537C245 18.6363 245.171 17.783 245.512 16.9937C245.853 16.1937 246.323 15.495 246.92 14.8977C247.528 14.2897 248.232 13.815 249.032 13.4737C249.832 13.1323 250.685 12.9617 251.592 12.9617C252.509 12.9617 253.363 13.1323 254.152 13.4737C254.952 13.815 255.651 14.2897 256.248 14.8977C256.856 15.495 257.331 16.1937 257.672 16.9937C258.013 17.783 258.184 18.6363 258.184 19.5537C258.184 20.4603 258.013 21.3137 257.672 22.1137C257.331 22.9137 256.856 23.6177 256.248 24.2257C255.651 24.823 254.952 25.2923 254.152 25.6337C253.363 25.975 252.509 26.1457 251.592 26.1457ZM251.592 25.2497C252.381 25.2497 253.117 25.1057 253.8 24.8177C254.493 24.519 255.101 24.1083 255.624 23.5857C256.147 23.063 256.552 22.4603 256.84 21.7777C257.139 21.0843 257.288 20.343 257.288 19.5537C257.288 18.7643 257.139 18.0283 256.84 17.3457C256.552 16.6523 256.147 16.0443 255.624 15.5217C255.101 14.999 254.493 14.5937 253.8 14.3057C253.117 14.007 252.381 13.8577 251.592 13.8577C250.803 13.8577 250.061 14.007 249.368 14.3057C248.685 14.5937 248.083 14.999 247.56 15.5217C247.037 16.0443 246.627 16.6523 246.328 17.3457C246.04 18.0283 245.896 18.7643 245.896 19.5537C245.896 20.343 246.04 21.0843 246.328 21.7777C246.627 22.4603 247.037 23.063 247.56 23.5857C248.083 24.1083 248.685 24.519 249.368 24.8177C250.061 25.1057 250.803 25.2497 251.592 25.2497ZM319.717 21.5625C319.753 22.2136 319.907 22.7422 320.178 23.1485C320.694 23.9089 321.602 24.2891 322.905 24.2891C323.488 24.2891 324.019 24.2058 324.498 24.0391C325.425 23.7162 325.889 23.1381 325.889 22.3047C325.889 21.6797 325.694 21.2344 325.303 20.9688C324.907 20.7084 324.287 20.4818 323.444 20.2891L321.889 19.9375C320.873 19.7084 320.155 19.4558 319.733 19.1797C319.003 18.7006 318.639 17.9844 318.639 17.0313C318.639 16 318.996 15.1537 319.709 14.4922C320.423 13.8308 321.433 13.5 322.74 13.5C323.944 13.5 324.964 13.7917 325.803 14.375C326.647 14.9532 327.069 15.8803 327.069 17.1563H325.608C325.53 16.5417 325.363 16.0704 325.108 15.7422C324.634 15.1433 323.829 14.8438 322.694 14.8438C321.777 14.8438 321.118 15.0365 320.717 15.4219C320.316 15.8073 320.115 16.2553 320.115 16.7657C320.115 17.3282 320.35 17.7396 320.819 18C321.126 18.1667 321.821 18.375 322.905 18.625L324.514 18.9922C325.29 19.1693 325.889 19.4115 326.311 19.7188C327.04 20.2553 327.405 21.0339 327.405 22.0547C327.405 23.3256 326.941 24.2344 326.014 24.7813C325.092 25.3282 324.019 25.6016 322.795 25.6016C321.368 25.6016 320.251 25.237 319.444 24.5079C318.636 23.7839 318.24 22.8021 318.256 21.5625H319.717ZM332.717 24.3204C333.373 24.3204 333.918 24.0469 334.35 23.5C334.787 22.948 335.006 22.125 335.006 21.0313C335.006 20.3646 334.91 19.7917 334.717 19.3125C334.352 18.3907 333.686 17.9297 332.717 17.9297C331.743 17.9297 331.076 18.4167 330.717 19.3907C330.524 19.9115 330.428 20.573 330.428 21.375C330.428 22.0209 330.524 22.5704 330.717 23.0235C331.082 23.8881 331.748 24.3204 332.717 24.3204ZM329.076 16.9375H330.444V18.0469C330.725 17.6667 331.032 17.3724 331.365 17.1641C331.839 16.8516 332.397 16.6954 333.037 16.6954C333.985 16.6954 334.79 17.0599 335.451 17.7891C336.113 18.5131 336.444 19.5495 336.444 20.8985C336.444 22.7214 335.967 24.0235 335.014 24.8047C334.41 25.2995 333.707 25.5469 332.905 25.5469C332.274 25.5469 331.746 25.4089 331.319 25.1329C331.069 24.9766 330.79 24.7084 330.483 24.3282V28.6016H329.076V16.9375ZM339.17 23.0391C339.17 23.4454 339.319 23.7657 339.615 24C339.912 24.2344 340.264 24.3516 340.67 24.3516C341.165 24.3516 341.644 24.237 342.108 24.0079C342.889 23.6277 343.28 23.0053 343.28 22.1407V21.0079C343.108 21.1172 342.886 21.2084 342.615 21.2813C342.345 21.3542 342.079 21.4063 341.819 21.4375L340.967 21.5469C340.457 21.6146 340.074 21.7214 339.819 21.8672C339.386 22.112 339.17 22.5027 339.17 23.0391ZM342.576 20.1954C342.899 20.1537 343.115 20.0183 343.225 19.7891C343.287 19.6641 343.319 19.4844 343.319 19.25C343.319 18.7709 343.147 18.4245 342.803 18.211C342.464 17.9922 341.977 17.8829 341.342 17.8829C340.608 17.8829 340.087 18.0808 339.78 18.4766C339.608 18.6954 339.496 19.0209 339.444 19.4532H338.131C338.157 18.4219 338.49 17.7058 339.131 17.3047C339.777 16.8985 340.524 16.6954 341.373 16.6954C342.358 16.6954 343.157 16.8829 343.772 17.2579C344.381 17.6329 344.686 18.2162 344.686 19.0079V23.8282C344.686 23.974 344.714 24.0912 344.772 24.1797C344.834 24.2683 344.962 24.3125 345.155 24.3125C345.217 24.3125 345.287 24.3099 345.365 24.3047C345.444 24.2943 345.527 24.2813 345.615 24.2657V25.3047C345.397 25.3672 345.23 25.4063 345.115 25.4219C345.001 25.4375 344.845 25.4454 344.647 25.4454C344.162 25.4454 343.811 25.2735 343.592 24.9297C343.477 24.7474 343.397 24.4896 343.35 24.1563C343.063 24.5313 342.652 24.8568 342.115 25.1329C341.579 25.4089 340.988 25.5469 340.342 25.5469C339.566 25.5469 338.931 25.3125 338.436 24.8438C337.946 24.3698 337.701 23.7787 337.701 23.0704C337.701 22.2943 337.944 21.6928 338.428 21.2657C338.912 20.8386 339.548 20.5756 340.334 20.4766L342.576 20.1954ZM347.037 16.8985H348.373V18.3438C348.483 18.0625 348.751 17.7214 349.178 17.3204C349.605 16.9141 350.097 16.711 350.655 16.711C350.681 16.711 350.725 16.7136 350.787 16.7188C350.85 16.724 350.957 16.7344 351.108 16.75V18.2344C351.024 18.2188 350.946 18.2084 350.873 18.2032C350.806 18.198 350.73 18.1954 350.647 18.1954C349.938 18.1954 349.394 18.4245 349.014 18.8829C348.634 19.336 348.444 19.8594 348.444 20.4532V25.2657H347.037V16.8985ZM352.295 13.7891H353.647V20.4532L357.256 16.8985H359.053L355.85 20.0313L359.233 25.2657H357.436L354.826 21.0469L353.647 22.125V25.2657H352.295V13.7891ZM360.326 16.9375H361.756V25.2657H360.326V16.9375ZM360.326 13.7891H361.756V15.3829H360.326V13.7891ZM363.889 16.8985H365.225V18.086C365.621 17.5964 366.04 17.2448 366.483 17.0313C366.925 16.8178 367.418 16.711 367.959 16.711C369.147 16.711 369.949 17.125 370.365 17.9532C370.595 18.4063 370.709 19.0547 370.709 19.8985V25.2657H369.28V19.9922C369.28 19.4818 369.204 19.0704 369.053 18.7579C368.803 18.237 368.35 17.9766 367.694 17.9766C367.36 17.9766 367.087 18.0105 366.873 18.0782C366.488 18.1928 366.149 18.4219 365.858 18.7657C365.623 19.0417 365.47 19.3282 365.397 19.625C365.329 19.9167 365.295 20.336 365.295 20.8829V25.2657H363.889V16.8985Z" fill="black"/>
</svg>
