<svg width="617" height="696" viewBox="0 0 617 696" fill="none" xmlns="http://www.w3.org/2000/svg">
<mask id="path-1-inside-1_12_51" fill="white">
<path fill-rule="evenodd" clip-rule="evenodd" d="M45.0913 19.6755C48.9153 8.05335 51.3053 3.5648 54.4123 1.64114C56.882 0.118239 58.794 0.0380859 117.827 0.0380859C176.78 0.0380859 178.772 0.118239 181.162 1.64114C184.508 3.64496 186.42 7.33198 190.722 19.5953C193.67 28.2518 194.785 30.4961 197.573 33.3014C199.406 35.145 202.274 37.0686 203.867 37.6297C204.325 37.7613 205.135 37.8869 206.195 37.9999H604C611.18 37.9999 617 43.8202 617 50.9999V683C617 690.18 611.18 696 604 696H0V50.9999C0 43.8202 5.8203 37.9999 13 37.9999H30.0963C32.8617 37.6779 33.872 37.1241 35.7703 35.8663C40.0723 32.9808 41.586 30.3358 45.0913 19.6755Z"/>
</mask>
<path fill-rule="evenodd" clip-rule="evenodd" d="M45.0913 19.6755C48.9153 8.05335 51.3053 3.5648 54.4123 1.64114C56.882 0.118239 58.794 0.0380859 117.827 0.0380859C176.78 0.0380859 178.772 0.118239 181.162 1.64114C184.508 3.64496 186.42 7.33198 190.722 19.5953C193.67 28.2518 194.785 30.4961 197.573 33.3014C199.406 35.145 202.274 37.0686 203.867 37.6297C204.325 37.7613 205.135 37.8869 206.195 37.9999H604C611.18 37.9999 617 43.8202 617 50.9999V683C617 690.18 611.18 696 604 696H0V50.9999C0 43.8202 5.8203 37.9999 13 37.9999H30.0963C32.8617 37.6779 33.872 37.1241 35.7703 35.8663C40.0723 32.9808 41.586 30.3358 45.0913 19.6755Z" fill="#D9D9D9"/>
<path d="M54.4123 1.64114L53.8875 0.789958L53.8859 0.790909L54.4123 1.64114ZM45.0913 19.6755L44.1414 19.3629L44.1414 19.3631L45.0913 19.6755ZM181.162 1.64114L180.625 2.48448L180.636 2.49194L180.648 2.49906L181.162 1.64114ZM190.722 19.5953L191.669 19.273L191.666 19.2643L190.722 19.5953ZM197.573 33.3014L198.283 32.5965V32.5965L197.573 33.3014ZM203.867 37.6297L203.535 38.5729L203.563 38.5827L203.591 38.5908L203.867 37.6297ZM206.195 37.9999L206.089 38.9943L206.142 38.9999H206.195V37.9999ZM0 696H-1V697H0V696ZM30.0963 37.9999V38.9999H30.1543L30.2119 38.9932L30.0963 37.9999ZM35.7703 35.8663L36.3227 36.7L36.3274 36.6968L35.7703 35.8663ZM53.8859 0.790909C52.1186 1.88514 50.6397 3.66321 49.1335 6.56006C47.6304 9.45075 46.0565 13.5424 44.1414 19.3629L46.0412 19.988C47.9501 14.1864 49.4832 10.2228 50.9079 7.48271C52.3294 4.74884 53.5991 3.32081 54.9388 2.49137L53.8859 0.790909ZM117.827 -0.961914C88.3186 -0.961914 73.065 -0.941969 64.8827 -0.731143C56.7775 -0.522306 55.3925 -0.138127 53.8875 0.789959L54.9372 2.49232C55.9018 1.8975 56.7077 1.48016 64.9342 1.26819C73.0835 1.05822 88.3024 1.03809 117.827 1.03809V-0.961914ZM181.699 0.797796C180.227 -0.140317 178.828 -0.522519 170.732 -0.731143C162.549 -0.941968 147.296 -0.961914 117.827 -0.961914V1.03809C147.312 1.03809 162.531 1.05822 170.68 1.26819C178.915 1.48037 179.707 1.8997 180.625 2.48448L181.699 0.797796ZM191.666 19.2643C189.516 13.1373 187.941 9.08272 186.467 6.30255C184.976 3.48904 183.55 1.90539 181.676 0.783218L180.648 2.49906C182.12 3.3807 183.323 4.64247 184.7 7.23927C186.094 9.86941 187.626 13.7901 189.778 19.9264L191.666 19.2643ZM198.283 32.5965C195.672 29.9704 194.616 27.9284 191.669 19.273L189.775 19.9177C192.723 28.5753 193.898 31.0218 196.864 34.0064L198.283 32.5965ZM204.199 36.6865C203.524 36.4486 202.492 35.8839 201.373 35.1205C200.268 34.3659 199.144 33.4636 198.283 32.5965L196.864 34.0064C197.835 34.9828 199.062 35.9641 200.246 36.7725C201.418 37.572 202.617 38.2497 203.535 38.5729L204.199 36.6865ZM206.301 37.0055C205.24 36.8924 204.508 36.7736 204.143 36.6686L203.591 38.5908C204.141 38.749 205.029 38.8813 206.089 38.9943L206.301 37.0055ZM206.195 38.9999H604V36.9999H206.195V38.9999ZM604 38.9999C610.627 38.9999 616 44.3725 616 50.9999H618C618 43.2679 611.732 36.9999 604 36.9999V38.9999ZM616 50.9999V683H618V50.9999H616ZM616 683C616 689.627 610.627 695 604 695V697C611.732 697 618 690.732 618 683H616ZM604 695H0V697H604V695ZM1 696V50.9999H-1V696H1ZM1 50.9999C1 44.3725 6.37258 38.9999 13 38.9999V36.9999C5.26801 36.9999 -1 43.2679 -1 50.9999H1ZM13 38.9999H30.0963V36.9999H13V38.9999ZM35.218 35.0327C34.2718 35.6596 33.6182 36.0616 32.8854 36.3562C32.1609 36.6475 31.3119 36.8516 29.9806 37.0066L30.2119 38.9932C31.646 38.8262 32.6849 38.5924 33.6315 38.2119C34.5698 37.8346 35.3705 37.3308 36.3227 36.7L35.218 35.0327ZM44.1414 19.3631C42.3861 24.7011 41.1591 27.9342 39.8628 30.1879C38.5998 32.3836 37.2643 33.6602 35.2133 35.0358L36.3274 36.6968C38.5784 35.187 40.1508 33.6983 41.5964 31.1851C43.0087 28.7298 44.2912 25.3102 46.0413 19.9879L44.1414 19.3631Z" fill="black" mask="url(#path-1-inside-1_12_51)"/>
</svg>
