<svg width="617" height="696" viewBox="0 0 617 696" fill="none" xmlns="http://www.w3.org/2000/svg">
<mask id="path-1-inside-1_46_2" fill="white">
<path fill-rule="evenodd" clip-rule="evenodd" d="M422.091 19.6374C425.915 8.01527 428.305 3.52672 431.412 1.60305C433.882 0.0801528 435.794 0 494.827 0C553.78 0 555.772 0.0801528 558.162 1.60305C561.508 3.60687 563.42 7.29389 567.722 19.5573C570.67 28.2137 571.785 30.458 574.573 33.2634C576.406 35.1069 579.274 37.0305 580.867 37.5916C581.325 37.7232 582.135 37.8488 583.195 37.9619H604C611.18 37.9619 617 43.7822 617 50.9619V682.962C617 690.142 611.18 695.962 604 695.962H0V50.9619C0 43.7822 5.8203 37.9619 13 37.9619H407.096C409.862 37.6399 410.872 37.0861 412.77 35.8282C417.072 32.9427 418.586 30.2977 422.091 19.6374Z"/>
</mask>
<path fill-rule="evenodd" clip-rule="evenodd" d="M422.091 19.6374C425.915 8.01527 428.305 3.52672 431.412 1.60305C433.882 0.0801528 435.794 0 494.827 0C553.78 0 555.772 0.0801528 558.162 1.60305C561.508 3.60687 563.42 7.29389 567.722 19.5573C570.67 28.2137 571.785 30.458 574.573 33.2634C576.406 35.1069 579.274 37.0305 580.867 37.5916C581.325 37.7232 582.135 37.8488 583.195 37.9619H604C611.18 37.9619 617 43.7822 617 50.9619V682.962C617 690.142 611.18 695.962 604 695.962H0V50.9619C0 43.7822 5.8203 37.9619 13 37.9619H407.096C409.862 37.6399 410.872 37.0861 412.77 35.8282C417.072 32.9427 418.586 30.2977 422.091 19.6374Z" fill="#D9D9D9"/>
<path d="M431.412 1.60305L430.887 0.751872L430.886 0.752821L431.412 1.60305ZM422.091 19.6374L421.141 19.3249L421.141 19.325L422.091 19.6374ZM558.162 1.60305L557.625 2.4464L557.636 2.45385L557.648 2.46097L558.162 1.60305ZM567.722 19.5573L568.669 19.2349L568.666 19.2262L567.722 19.5573ZM574.573 33.2634L573.864 33.9683L573.864 33.9683L574.573 33.2634ZM580.867 37.5916L580.535 38.5348L580.563 38.5446L580.591 38.5527L580.867 37.5916ZM583.195 37.9619L583.089 38.9562L583.142 38.9619H583.195V37.9619ZM0 695.962H-1V696.962H0V695.962ZM407.096 37.9619V38.9619H407.154L407.212 38.9551L407.096 37.9619ZM412.77 35.8282L413.323 36.6619L413.327 36.6587L412.77 35.8282ZM430.886 0.752821C429.119 1.84705 427.64 3.62512 426.133 6.52198C424.63 9.41266 423.057 13.5044 421.141 19.3249L423.041 19.9499C424.95 14.1483 426.483 10.1847 427.908 7.44463C429.329 4.71076 430.599 3.28272 431.939 2.45329L430.886 0.752821ZM494.827 -1C465.319 -1 450.065 -0.980054 441.883 -0.769229C433.778 -0.560392 432.393 -0.176212 430.887 0.751874L431.937 2.45423C432.902 1.85942 433.708 1.44207 441.934 1.23011C450.084 1.02013 465.302 1 494.827 1V-1ZM558.699 0.759709C557.227 -0.178402 555.828 -0.560605 547.731 -0.769229C539.549 -0.980054 524.296 -1 494.827 -1V1C524.312 1 539.531 1.02013 547.68 1.23011C555.915 1.44228 556.707 1.86161 557.625 2.4464L558.699 0.759709ZM568.666 19.2262C566.516 13.0992 564.941 9.04463 563.467 6.26446C561.976 3.45096 560.55 1.86731 558.676 0.745132L557.648 2.46097C559.12 3.34262 560.323 4.60439 561.7 7.20119C563.094 9.83132 564.626 13.752 566.778 19.8883L568.666 19.2262ZM575.283 32.5584C572.672 29.9323 571.616 27.8903 568.669 19.2349L566.775 19.8796C569.723 28.5372 570.898 30.9837 573.864 33.9683L575.283 32.5584ZM581.199 36.6484C580.524 36.4105 579.492 35.8459 578.373 35.0824C577.268 34.3278 576.144 33.4255 575.283 32.5584L573.864 33.9683C574.835 34.9448 576.062 35.926 577.246 36.7344C578.418 37.5339 579.617 38.2116 580.535 38.5348L581.199 36.6484ZM583.301 36.9675C582.24 36.8544 581.508 36.7355 581.143 36.6305L580.591 38.5527C581.141 38.7109 582.03 38.8433 583.089 38.9562L583.301 36.9675ZM583.195 38.9619H604V36.9619H583.195V38.9619ZM604 38.9619C610.627 38.9619 616 44.3344 616 50.9619H618C618 43.2299 611.732 36.9619 604 36.9619V38.9619ZM616 50.9619V682.962H618V50.9619H616ZM616 682.962C616 689.589 610.627 694.962 604 694.962V696.962C611.732 696.962 618 690.694 618 682.962H616ZM604 694.962H0V696.962H604V694.962ZM1 695.962V50.9619H-1V695.962H1ZM1 50.9619C1 44.3344 6.37258 38.9619 13 38.9619V36.9619C5.26801 36.9619 -1 43.2299 -1 50.9619H1ZM13 38.9619H407.096V36.9619H13V38.9619ZM412.218 34.9946C411.272 35.6216 410.618 36.0236 409.885 36.3182C409.161 36.6095 408.312 36.8136 406.98 36.9686L407.212 38.9551C408.646 38.7882 409.685 38.5544 410.631 38.1738C411.57 37.7966 412.371 37.2927 413.323 36.6619L412.218 34.9946ZM421.141 19.325C419.386 24.663 418.159 27.8961 416.863 30.1498C415.6 32.3455 414.264 33.6221 412.213 34.9978L413.327 36.6587C415.578 35.1489 417.151 33.6602 418.596 31.147C420.009 28.6917 421.291 25.2721 423.041 19.9498L421.141 19.325Z" fill="black" mask="url(#path-1-inside-1_46_2)"/>
</svg>
