<svg width="617" height="696" viewBox="0 0 617 696" fill="none" xmlns="http://www.w3.org/2000/svg">
<mask id="path-1-inside-1_11_46" fill="white">
<path fill-rule="evenodd" clip-rule="evenodd" d="M45.0913 19.6374C48.9153 8.01527 51.3053 3.52672 54.4123 1.60305C56.882 0.0801527 58.794 0 117.827 0C176.78 0 178.772 0.0801527 181.162 1.60305C184.508 3.60687 186.42 7.29389 190.722 19.5573C193.67 28.2137 194.785 30.458 197.573 33.2634C199.406 35.1069 202.274 37.0305 203.867 37.5916C204.325 37.7232 205.135 37.8488 206.195 37.9618H604C611.18 37.9618 617 43.7821 617 50.9618V682.962C617 690.142 611.18 695.962 604 695.962H0V50.9618C0 43.7821 5.8203 37.9618 13 37.9618H30.0963C32.8617 37.6398 33.872 37.086 35.7703 35.8282C40.0723 32.9427 41.586 30.2977 45.0913 19.6374Z"/>
</mask>
<path fill-rule="evenodd" clip-rule="evenodd" d="M45.0913 19.6374C48.9153 8.01527 51.3053 3.52672 54.4123 1.60305C56.882 0.0801527 58.794 0 117.827 0C176.78 0 178.772 0.0801527 181.162 1.60305C184.508 3.60687 186.42 7.29389 190.722 19.5573C193.67 28.2137 194.785 30.458 197.573 33.2634C199.406 35.1069 202.274 37.0305 203.867 37.5916C204.325 37.7232 205.135 37.8488 206.195 37.9618H604C611.18 37.9618 617 43.7821 617 50.9618V682.962C617 690.142 611.18 695.962 604 695.962H0V50.9618C0 43.7821 5.8203 37.9618 13 37.9618H30.0963C32.8617 37.6398 33.872 37.086 35.7703 35.8282C40.0723 32.9427 41.586 30.2977 45.0913 19.6374Z" fill="#3A3A3A"/>
<path d="M54.4123 1.60305L53.8875 0.751872L53.8859 0.752823L54.4123 1.60305ZM45.0913 19.6374L44.1414 19.3249L44.1414 19.325L45.0913 19.6374ZM181.162 1.60305L180.625 2.4464L180.636 2.45385L180.648 2.46097L181.162 1.60305ZM190.722 19.5573L191.669 19.2349L191.666 19.2262L190.722 19.5573ZM197.573 33.2634L198.283 32.5584L198.283 32.5584L197.573 33.2634ZM203.867 37.5916L203.535 38.5348L203.563 38.5446L203.591 38.5527L203.867 37.5916ZM206.195 37.9618L206.089 38.9562L206.142 38.9618H206.195V37.9618ZM0 695.962H-1V696.962H0V695.962ZM30.0963 37.9618V38.9618H30.1543L30.2119 38.9551L30.0963 37.9618ZM35.7703 35.8282L36.3227 36.6619L36.3274 36.6587L35.7703 35.8282ZM53.8859 0.752823C52.1186 1.84705 50.6397 3.62512 49.1335 6.52198C47.6304 9.41266 46.0565 13.5044 44.1414 19.3249L46.0412 19.9499C47.9501 14.1483 49.4832 10.1847 50.9079 7.44463C52.3294 4.71076 53.5991 3.28272 54.9388 2.45328L53.8859 0.752823ZM117.827 -1C88.3186 -1 73.065 -0.980054 64.8827 -0.769229C56.7775 -0.560392 55.3925 -0.176212 53.8875 0.751873L54.9372 2.45423C55.9018 1.85942 56.7077 1.44207 64.9342 1.23011C73.0835 1.02013 88.3024 1 117.827 1V-1ZM181.699 0.759711C180.227 -0.178403 178.828 -0.560605 170.732 -0.769229C162.549 -0.980054 147.296 -1 117.827 -1V1C147.312 1 162.531 1.02013 170.68 1.23011C178.915 1.44228 179.707 1.86161 180.625 2.4464L181.699 0.759711ZM191.666 19.2262C189.516 13.0992 187.941 9.04464 186.467 6.26446C184.976 3.45096 183.55 1.86731 181.676 0.745132L180.648 2.46097C182.12 3.34262 183.323 4.60438 184.7 7.20119C186.094 9.83132 187.626 13.752 189.778 19.8883L191.666 19.2262ZM198.283 32.5584C195.672 29.9323 194.616 27.8903 191.669 19.2349L189.775 19.8796C192.723 28.5372 193.898 30.9837 196.864 33.9683L198.283 32.5584ZM204.199 36.6484C203.524 36.4105 202.492 35.8458 201.373 35.0824C200.268 34.3278 199.144 33.4255 198.283 32.5584L196.864 33.9683C197.835 34.9448 199.062 35.926 200.246 36.7344C201.418 37.5339 202.617 38.2116 203.535 38.5348L204.199 36.6484ZM206.301 36.9674C205.24 36.8543 204.508 36.7355 204.143 36.6305L203.591 38.5527C204.141 38.7109 205.029 38.8432 206.089 38.9562L206.301 36.9674ZM206.195 38.9618H604V36.9618H206.195V38.9618ZM604 38.9618C610.627 38.9618 616 44.3344 616 50.9618H618C618 43.2298 611.732 36.9618 604 36.9618V38.9618ZM616 50.9618V682.962H618V50.9618H616ZM616 682.962C616 689.589 610.627 694.962 604 694.962V696.962C611.732 696.962 618 690.694 618 682.962H616ZM604 694.962H0V696.962H604V694.962ZM1 695.962V50.9618H-1V695.962H1ZM1 50.9618C1 44.3344 6.37258 38.9618 13 38.9618V36.9618C5.26801 36.9618 -1 43.2298 -1 50.9618H1ZM13 38.9618H30.0963V36.9618H13V38.9618ZM35.218 34.9946C34.2718 35.6215 33.6182 36.0235 32.8854 36.3181C32.1609 36.6094 31.3119 36.8135 29.9806 36.9685L30.2119 38.9551C31.646 38.7881 32.6849 38.5543 33.6315 38.1738C34.5698 37.7965 35.3705 37.2927 36.3227 36.6619L35.218 34.9946ZM44.1414 19.325C42.3861 24.663 41.1591 27.8961 39.8628 30.1498C38.5997 32.3455 37.2643 33.6221 35.2133 34.9978L36.3274 36.6587C38.5784 35.1489 40.1508 33.6602 41.5964 31.147C43.0087 28.6917 44.2912 25.2721 46.0413 19.9498L44.1414 19.325Z" fill="black" mask="url(#path-1-inside-1_11_46)"/>
</svg>
