<svg width="617" height="696" viewBox="0 0 617 696" fill="none" xmlns="http://www.w3.org/2000/svg">
<mask id="path-1-inside-1_34_408" fill="white">
<path fill-rule="evenodd" clip-rule="evenodd" d="M45.0913 19.6374C48.9153 8.01527 51.3053 3.52672 54.4123 1.60305C56.882 0.0801527 58.794 0 117.827 0C176.78 0 178.772 0.0801527 181.162 1.60305C184.508 3.60687 186.42 7.29389 190.722 19.5573C193.67 28.2137 194.785 30.458 197.573 33.2634C199.406 35.1069 202.274 37.0305 203.867 37.5916C204.325 37.7232 205.135 37.8488 206.195 37.9618H604C611.18 37.9618 617 43.7821 617 50.9618V682.962C617 690.142 611.18 695.962 604 695.962H0V50.9618C0 43.7821 5.8203 37.9618 13 37.9618H30.0963C32.8617 37.6398 33.872 37.086 35.7703 35.8282C40.0723 32.9427 41.586 30.2977 45.0913 19.6374Z"/>
</mask>
<path fill-rule="evenodd" clip-rule="evenodd" d="M45.0913 19.6374C48.9153 8.01527 51.3053 3.52672 54.4123 1.60305C56.882 0.0801527 58.794 0 117.827 0C176.78 0 178.772 0.0801527 181.162 1.60305C184.508 3.60687 186.42 7.29389 190.722 19.5573C193.67 28.2137 194.785 30.458 197.573 33.2634C199.406 35.1069 202.274 37.0305 203.867 37.5916C204.325 37.7232 205.135 37.8488 206.195 37.9618H604C611.18 37.9618 617 43.7821 617 50.9618V682.962C617 690.142 611.18 695.962 604 695.962H0V50.9618C0 43.7821 5.8203 37.9618 13 37.9618H30.0963C32.8617 37.6398 33.872 37.086 35.7703 35.8282C40.0723 32.9427 41.586 30.2977 45.0913 19.6374Z" fill="#D9D9D9"/>
<path d="M54.4123 1.60305L53.8875 0.751872L53.8859 0.752823L54.4123 1.60305ZM45.0913 19.6374L44.1414 19.3249L44.1414 19.325L45.0913 19.6374ZM181.162 1.60305L180.625 2.4464L180.636 2.45385L180.648 2.46097L181.162 1.60305ZM190.722 19.5573L191.669 19.2349L191.666 19.2262L190.722 19.5573ZM197.573 33.2634L198.283 32.5584L198.283 32.5584L197.573 33.2634ZM203.867 37.5916L203.535 38.5348L203.563 38.5446L203.591 38.5527L203.867 37.5916ZM206.195 37.9618L206.089 38.9562L206.142 38.9618H206.195V37.9618ZM0 695.962H-1V696.962H0V695.962ZM30.0963 37.9618V38.9618H30.1543L30.2119 38.9551L30.0963 37.9618ZM35.7703 35.8282L36.3227 36.6619L36.3274 36.6587L35.7703 35.8282ZM53.8859 0.752823C52.1186 1.84705 50.6397 3.62512 49.1335 6.52198C47.6304 9.41266 46.0565 13.5044 44.1414 19.3249L46.0412 19.9499C47.9501 14.1483 49.4832 10.1847 50.9079 7.44463C52.3294 4.71076 53.5991 3.28272 54.9388 2.45328L53.8859 0.752823ZM117.827 -1C88.3186 -1 73.065 -0.980054 64.8827 -0.769229C56.7775 -0.560392 55.3925 -0.176212 53.8875 0.751873L54.9372 2.45423C55.9018 1.85942 56.7077 1.44207 64.9342 1.23011C73.0835 1.02013 88.3024 1 117.827 1V-1ZM181.699 0.759711C180.227 -0.178403 178.828 -0.560605 170.732 -0.769229C162.549 -0.980054 147.296 -1 117.827 -1V1C147.312 1 162.531 1.02013 170.68 1.23011C178.915 1.44228 179.707 1.86161 180.625 2.4464L181.699 0.759711ZM191.666 19.2262C189.516 13.0992 187.941 9.04464 186.467 6.26446C184.976 3.45096 183.55 1.86731 181.676 0.745132L180.648 2.46097C182.12 3.34262 183.323 4.60438 184.7 7.20119C186.094 9.83132 187.626 13.752 189.778 19.8883L191.666 19.2262ZM198.283 32.5584C195.672 29.9323 194.616 27.8903 191.669 19.2349L189.775 19.8796C192.723 28.5372 193.898 30.9837 196.864 33.9683L198.283 32.5584ZM204.199 36.6484C203.524 36.4105 202.492 35.8458 201.373 35.0824C200.268 34.3278 199.144 33.4255 198.283 32.5584L196.864 33.9683C197.835 34.9448 199.062 35.926 200.246 36.7344C201.418 37.5339 202.617 38.2116 203.535 38.5348L204.199 36.6484ZM206.301 36.9674C205.24 36.8543 204.508 36.7355 204.143 36.6305L203.591 38.5527C204.141 38.7109 205.029 38.8432 206.089 38.9562L206.301 36.9674ZM206.195 38.9618H604V36.9618H206.195V38.9618ZM604 38.9618C610.627 38.9618 616 44.3344 616 50.9618H618C618 43.2298 611.732 36.9618 604 36.9618V38.9618ZM616 50.9618V682.962H618V50.9618H616ZM616 682.962C616 689.589 610.627 694.962 604 694.962V696.962C611.732 696.962 618 690.694 618 682.962H616ZM604 694.962H0V696.962H604V694.962ZM1 695.962V50.9618H-1V695.962H1ZM1 50.9618C1 44.3344 6.37258 38.9618 13 38.9618V36.9618C5.26801 36.9618 -1 43.2298 -1 50.9618H1ZM13 38.9618H30.0963V36.9618H13V38.9618ZM35.218 34.9946C34.2718 35.6215 33.6182 36.0235 32.8854 36.3181C32.1609 36.6094 31.3119 36.8135 29.9806 36.9685L30.2119 38.9551C31.646 38.7881 32.6849 38.5543 33.6315 38.1738C34.5698 37.7965 35.3705 37.2927 36.3227 36.6619L35.218 34.9946ZM44.1414 19.325C42.3861 24.663 41.1591 27.8961 39.8628 30.1498C38.5997 32.3455 37.2643 33.6221 35.2133 34.9978L36.3274 36.6587C38.5784 35.1489 40.1508 33.6602 41.5964 31.147C43.0087 28.6917 44.2912 25.2721 46.0413 19.9498L44.1414 19.325Z" fill="black" mask="url(#path-1-inside-1_34_408)"/>
<path d="M63.5518 24.144C63.4025 24.144 63.2531 24.1386 63.1038 24.128C62.9545 24.1066 62.8105 24.0746 62.6718 24.032V23.088C62.7998 23.1306 62.9385 23.168 63.0878 23.2C63.2478 23.2213 63.4131 23.232 63.5838 23.232C64.0211 23.232 64.3838 23.1466 64.6718 22.976C64.9705 22.7946 65.1998 22.5226 65.3598 22.16C65.5198 21.7973 65.6158 21.3386 65.6478 20.784H65.5838C65.4345 21.0506 65.2265 21.2533 64.9598 21.392C64.7038 21.52 64.3891 21.584 64.0158 21.584C63.4611 21.584 63.0025 21.3973 62.6398 21.024C62.2878 20.6506 62.1118 20.1226 62.1118 19.44C62.1118 18.7146 62.3145 18.1333 62.7198 17.696C63.1358 17.2586 63.6691 17.04 64.3198 17.04C64.7678 17.04 65.1678 17.152 65.5198 17.376C65.8825 17.6 66.1651 17.9413 66.3678 18.4C66.5811 18.848 66.6878 19.4186 66.6878 20.112C66.6878 21.008 66.5705 21.7546 66.3358 22.352C66.1011 22.9493 65.7491 23.3973 65.2798 23.696C64.8211 23.9946 64.2451 24.144 63.5518 24.144ZM60.1598 24V18.832C60.1598 18.7146 60.1651 18.6026 60.1758 18.496C60.1865 18.3786 60.1918 18.2666 60.1918 18.16C60.1491 18.2026 60.0798 18.2613 59.9838 18.336C59.8985 18.4106 59.7971 18.496 59.6798 18.592C59.5731 18.6773 59.4451 18.7786 59.2958 18.896C59.1571 19.0026 58.9971 19.1253 58.8158 19.264L58.2718 18.48L60.0958 17.152H61.2478V24H60.1598ZM64.3198 20.704C64.7251 20.704 65.0398 20.5866 65.2638 20.352C65.4878 20.1066 65.5998 19.8453 65.5998 19.568C65.5998 19.1093 65.4825 18.7253 65.2478 18.416C65.0131 18.1066 64.7145 17.952 64.3518 17.952C63.9998 17.952 63.7171 18.0746 63.5038 18.32C63.2905 18.5546 63.1838 18.9173 63.1838 19.408C63.1838 19.8133 63.2798 20.1333 63.4718 20.368C63.6745 20.592 63.9571 20.704 64.3198 20.704ZM62.5918 27.184C61.6851 27.184 60.8318 27.0133 60.0318 26.672C59.2318 26.3306 58.5278 25.8613 57.9198 25.264C57.3225 24.656 56.8531 23.952 56.5118 23.152C56.1705 22.352 55.9998 21.4986 55.9998 20.592C55.9998 19.6746 56.1705 18.8213 56.5118 18.032C56.8531 17.232 57.3225 16.5333 57.9198 15.936C58.5278 15.328 59.2318 14.8533 60.0318 14.512C60.8318 14.1706 61.6851 14 62.5918 14C63.5091 14 64.3625 14.1706 65.1518 14.512C65.9518 14.8533 66.6505 15.328 67.2478 15.936C67.8558 16.5333 68.3305 17.232 68.6718 18.032C69.0131 18.8213 69.1838 19.6746 69.1838 20.592C69.1838 21.4986 69.0131 22.352 68.6718 23.152C68.3305 23.952 67.8558 24.656 67.2478 25.264C66.6505 25.8613 65.9518 26.3306 65.1518 26.672C64.3625 27.0133 63.5091 27.184 62.5918 27.184ZM62.5918 26.288C63.3811 26.288 64.1171 26.144 64.7998 25.856C65.4931 25.5573 66.1011 25.1466 66.6238 24.624C67.1465 24.1013 67.5518 23.4986 67.8398 22.816C68.1385 22.1226 68.2878 21.3813 68.2878 20.592C68.2878 19.8026 68.1385 19.0666 67.8398 18.384C67.5518 17.6906 67.1465 17.0826 66.6238 16.56C66.1011 16.0373 65.4931 15.632 64.7998 15.344C64.1171 15.0453 63.3811 14.896 62.5918 14.896C61.8025 14.896 61.0611 15.0453 60.3678 15.344C59.6851 15.632 59.0825 16.0373 58.5598 16.56C58.0371 17.0826 57.6265 17.6906 57.3278 18.384C57.0398 19.0666 56.8958 19.8026 56.8958 20.592C56.8958 21.3813 57.0398 22.1226 57.3278 22.816C57.6265 23.4986 58.0371 24.1013 58.5598 24.624C59.0825 25.1466 59.6851 25.5573 60.3678 25.856C61.0611 26.144 61.8025 26.288 62.5918 26.288ZM102.982 14.8274H104.537V24.9368H110.35V26.304H102.982V14.8274ZM111.701 17.9758H113.131V26.304H111.701V17.9758ZM111.701 14.8274H113.131V16.4211H111.701V14.8274ZM118.795 25.3586C119.451 25.3586 119.995 25.0852 120.428 24.5383C120.865 23.9862 121.084 23.1633 121.084 22.0696C121.084 21.4029 120.988 20.83 120.795 20.3508C120.43 19.429 119.764 18.968 118.795 18.968C117.821 18.968 117.154 19.455 116.795 20.429C116.602 20.9498 116.506 21.6112 116.506 22.4133C116.506 23.0592 116.602 23.6086 116.795 24.0618C117.16 24.9264 117.826 25.3586 118.795 25.3586ZM115.154 17.9758H116.521V19.0852C116.803 18.705 117.11 18.4107 117.443 18.2024C117.917 17.8899 118.475 17.7336 119.115 17.7336C120.063 17.7336 120.868 18.0982 121.529 18.8274C122.191 19.5514 122.521 20.5878 122.521 21.9368C122.521 23.7597 122.045 25.0618 121.092 25.843C120.488 26.3378 119.785 26.5852 118.982 26.5852C118.352 26.5852 117.824 26.4472 117.396 26.1711C117.146 26.0149 116.868 25.7467 116.561 25.3665V29.6399H115.154V17.9758ZM129.826 22.6008C129.863 23.2519 130.016 23.7805 130.287 24.1868C130.803 24.9472 131.712 25.3274 133.014 25.3274C133.597 25.3274 134.128 25.2441 134.607 25.0774C135.535 24.7545 135.998 24.1764 135.998 23.343C135.998 22.718 135.803 22.2727 135.412 22.0071C135.016 21.7467 134.396 21.5201 133.553 21.3274L131.998 20.9758C130.982 20.7467 130.264 20.4941 129.842 20.218C129.113 19.7389 128.748 19.0227 128.748 18.0696C128.748 17.0383 129.105 16.192 129.818 15.5305C130.532 14.8691 131.542 14.5383 132.85 14.5383C134.053 14.5383 135.074 14.83 135.912 15.4133C136.756 15.9915 137.178 16.9185 137.178 18.1946H135.717C135.639 17.58 135.472 17.1086 135.217 16.7805C134.743 16.1816 133.938 15.8821 132.803 15.8821C131.886 15.8821 131.227 16.0748 130.826 16.4602C130.425 16.8456 130.225 17.2935 130.225 17.804C130.225 18.3665 130.459 18.7779 130.928 19.0383C131.235 19.205 131.93 19.4133 133.014 19.6633L134.623 20.0305C135.399 20.2076 135.998 20.4498 136.42 20.7571C137.149 21.2935 137.514 22.0722 137.514 23.093C137.514 24.3639 137.05 25.2727 136.123 25.8196C135.201 26.3665 134.128 26.6399 132.904 26.6399C131.477 26.6399 130.36 26.2753 129.553 25.5461C128.745 24.8222 128.35 23.8404 128.365 22.6008H129.826ZM142.779 17.7493C143.373 17.7493 143.949 17.8899 144.506 18.1711C145.063 18.4472 145.488 18.8066 145.779 19.2493C146.061 19.6711 146.248 20.1633 146.342 20.7258C146.425 21.1112 146.467 21.7258 146.467 22.5696H140.334C140.36 23.4185 140.561 24.1008 140.936 24.6165C141.311 25.1269 141.891 25.3821 142.678 25.3821C143.412 25.3821 143.998 25.1399 144.436 24.6555C144.686 24.3743 144.863 24.0487 144.967 23.679H146.35C146.313 23.9862 146.191 24.33 145.982 24.7102C145.779 25.0852 145.55 25.3925 145.295 25.6321C144.868 26.0487 144.339 26.33 143.709 26.4758C143.37 26.5592 142.988 26.6008 142.561 26.6008C141.519 26.6008 140.636 26.2232 139.912 25.468C139.188 24.7076 138.826 23.6451 138.826 22.2805C138.826 20.9368 139.191 19.8456 139.92 19.0071C140.649 18.1685 141.602 17.7493 142.779 17.7493ZM145.021 21.4524C144.964 20.843 144.831 20.356 144.623 19.9915C144.238 19.3144 143.594 18.9758 142.693 18.9758C142.048 18.9758 141.506 19.2102 141.068 19.679C140.631 20.1425 140.399 20.7336 140.373 21.4524H145.021ZM148.24 17.9368H149.576V19.3821C149.686 19.1008 149.954 18.7597 150.381 18.3586C150.808 17.9524 151.3 17.7493 151.857 17.7493C151.883 17.7493 151.928 17.7519 151.99 17.7571C152.053 17.7623 152.16 17.7727 152.311 17.7883V19.2727C152.227 19.2571 152.149 19.2467 152.076 19.2415C152.008 19.2362 151.933 19.2336 151.85 19.2336C151.141 19.2336 150.597 19.4628 150.217 19.9211C149.837 20.3743 149.646 20.8977 149.646 21.4915V26.304H148.24V17.9368ZM154.217 17.9368L156.451 24.7493L158.787 17.9368H160.326L157.17 26.304H155.67L152.584 17.9368H154.217ZM161.529 17.9758H162.959V26.304H161.529V17.9758ZM161.529 14.8274H162.959V16.4211H161.529V14.8274ZM168.318 17.6946C169.261 17.6946 170.027 17.9237 170.615 18.3821C171.209 18.8404 171.566 19.6295 171.686 20.7493H170.318C170.235 20.2336 170.045 19.8066 169.748 19.468C169.451 19.1243 168.975 18.9524 168.318 18.9524C167.423 18.9524 166.782 19.3899 166.396 20.2649C166.146 20.8326 166.021 21.5331 166.021 22.3665C166.021 23.205 166.199 23.9107 166.553 24.4836C166.907 25.0566 167.464 25.343 168.225 25.343C168.808 25.343 169.269 25.1659 169.607 24.8118C169.951 24.4524 170.188 23.9628 170.318 23.343H171.686C171.529 24.4524 171.139 25.2649 170.514 25.7805C169.889 26.2909 169.089 26.5461 168.115 26.5461C167.021 26.5461 166.149 26.1477 165.498 25.3508C164.847 24.5487 164.521 23.5487 164.521 22.3508C164.521 20.8821 164.878 19.7389 165.592 18.9211C166.305 18.1034 167.214 17.6946 168.318 17.6946ZM176.576 17.7493C177.17 17.7493 177.745 17.8899 178.303 18.1711C178.86 18.4472 179.285 18.8066 179.576 19.2493C179.857 19.6711 180.045 20.1633 180.139 20.7258C180.222 21.1112 180.264 21.7258 180.264 22.5696H174.131C174.157 23.4185 174.357 24.1008 174.732 24.6165C175.107 25.1269 175.688 25.3821 176.475 25.3821C177.209 25.3821 177.795 25.1399 178.232 24.6555C178.482 24.3743 178.66 24.0487 178.764 23.679H180.146C180.11 23.9862 179.988 24.33 179.779 24.7102C179.576 25.0852 179.347 25.3925 179.092 25.6321C178.665 26.0487 178.136 26.33 177.506 26.4758C177.167 26.5592 176.785 26.6008 176.357 26.6008C175.316 26.6008 174.433 26.2232 173.709 25.468C172.985 24.7076 172.623 23.6451 172.623 22.2805C172.623 20.9368 172.988 19.8456 173.717 19.0071C174.446 18.1685 175.399 17.7493 176.576 17.7493ZM178.818 21.4524C178.761 20.843 178.628 20.356 178.42 19.9915C178.035 19.3144 177.391 18.9758 176.49 18.9758C175.844 18.9758 175.303 19.2102 174.865 19.679C174.428 20.1425 174.196 20.7336 174.17 21.4524H178.818Z" fill="black"/>
</svg>
