<svg width="617" height="696" viewBox="0 0 617 696" fill="none" xmlns="http://www.w3.org/2000/svg">
<mask id="path-1-inside-1_12_80" fill="white">
<path fill-rule="evenodd" clip-rule="evenodd" d="M422.091 19.6755C425.915 8.05335 428.305 3.5648 431.412 1.64114C433.882 0.118239 435.794 0.0380859 494.827 0.0380859C553.78 0.0380859 555.772 0.118239 558.162 1.64114C561.508 3.64496 563.42 7.33198 567.722 19.5953C570.67 28.2518 571.785 30.4961 574.573 33.3014C576.406 35.145 579.274 37.0686 580.867 37.6297C581.325 37.7613 582.135 37.8869 583.195 37.9999H604C611.18 37.9999 617 43.8202 617 50.9999V683C617 690.18 611.18 696 604 696H0V51C0 43.8202 5.8203 37.9999 13 37.9999H407.096C409.862 37.678 410.872 37.1241 412.77 35.8663C417.072 32.9808 418.586 30.3358 422.091 19.6755Z"/>
</mask>
<path fill-rule="evenodd" clip-rule="evenodd" d="M422.091 19.6755C425.915 8.05335 428.305 3.5648 431.412 1.64114C433.882 0.118239 435.794 0.0380859 494.827 0.0380859C553.78 0.0380859 555.772 0.118239 558.162 1.64114C561.508 3.64496 563.42 7.33198 567.722 19.5953C570.67 28.2518 571.785 30.4961 574.573 33.3014C576.406 35.145 579.274 37.0686 580.867 37.6297C581.325 37.7613 582.135 37.8869 583.195 37.9999H604C611.18 37.9999 617 43.8202 617 50.9999V683C617 690.18 611.18 696 604 696H0V51C0 43.8202 5.8203 37.9999 13 37.9999H407.096C409.862 37.678 410.872 37.1241 412.77 35.8663C417.072 32.9808 418.586 30.3358 422.091 19.6755Z" fill="#D9D9D9"/>
<path d="M431.412 1.64114L430.887 0.789958L430.886 0.790907L431.412 1.64114ZM422.091 19.6755L421.141 19.3629L421.141 19.3631L422.091 19.6755ZM558.162 1.64114L557.625 2.48448L557.636 2.49194L557.648 2.49906L558.162 1.64114ZM567.722 19.5953L568.669 19.273L568.666 19.2643L567.722 19.5953ZM574.573 33.3014L573.864 34.0064L573.864 34.0064L574.573 33.3014ZM580.867 37.6297L580.535 38.5729L580.563 38.5827L580.591 38.5908L580.867 37.6297ZM583.195 37.9999L583.089 38.9943L583.142 38.9999H583.195V37.9999ZM0 696H-1V697H0V696ZM407.096 37.9999V38.9999H407.154L407.212 38.9932L407.096 37.9999ZM412.77 35.8663L413.323 36.7L413.327 36.6968L412.77 35.8663ZM430.886 0.790907C429.119 1.88514 427.64 3.66321 426.133 6.56006C424.63 9.45075 423.057 13.5424 421.141 19.3629L423.041 19.988C424.95 14.1864 426.483 10.2228 427.908 7.48271C429.329 4.74884 430.599 3.32081 431.939 2.49137L430.886 0.790907ZM494.827 -0.961914C465.319 -0.961914 450.065 -0.941968 441.883 -0.731143C433.778 -0.522306 432.393 -0.138126 430.887 0.789959L431.937 2.49232C432.902 1.8975 433.708 1.48016 441.934 1.26819C450.084 1.05822 465.302 1.03809 494.827 1.03809V-0.961914ZM558.699 0.797795C557.227 -0.140316 555.828 -0.522519 547.731 -0.731143C539.549 -0.941968 524.296 -0.961914 494.827 -0.961914V1.03809C524.312 1.03809 539.531 1.05822 547.68 1.26819C555.915 1.48037 556.707 1.89969 557.625 2.48448L558.699 0.797795ZM568.666 19.2643C566.516 13.1373 564.941 9.08272 563.467 6.30255C561.976 3.48904 560.55 1.90539 558.676 0.783218L557.648 2.49906C559.12 3.3807 560.323 4.64247 561.7 7.23928C563.094 9.86941 564.626 13.7901 566.778 19.9264L568.666 19.2643ZM575.283 32.5965C572.672 29.9704 571.616 27.9284 568.669 19.273L566.775 19.9177C569.723 28.5753 570.898 31.0218 573.864 34.0064L575.283 32.5965ZM581.199 36.6865C580.524 36.4486 579.492 35.8839 578.373 35.1205C577.268 34.3659 576.144 33.4636 575.283 32.5965L573.864 34.0064C574.835 34.9828 576.062 35.9641 577.246 36.7725C578.418 37.572 579.617 38.2497 580.535 38.5729L581.199 36.6865ZM583.301 37.0056C582.24 36.8925 581.508 36.7736 581.143 36.6686L580.591 38.5908C581.141 38.749 582.03 38.8814 583.089 38.9943L583.301 37.0056ZM583.195 38.9999H604V36.9999H583.195V38.9999ZM604 38.9999C610.627 38.9999 616 44.3725 616 50.9999H618C618 43.268 611.732 36.9999 604 36.9999V38.9999ZM616 50.9999V683H618V50.9999H616ZM616 683C616 689.627 610.627 695 604 695V697C611.732 697 618 690.732 618 683H616ZM604 695H0V697H604V695ZM1 696V51H-1V696H1ZM1 51C1 44.3725 6.37258 38.9999 13 38.9999V36.9999C5.26801 36.9999 -1 43.268 -1 51H1ZM13 38.9999H407.096V36.9999H13V38.9999ZM412.218 35.0327C411.272 35.6597 410.618 36.0616 409.885 36.3563C409.161 36.6475 408.312 36.8517 406.98 37.0066L407.212 38.9932C408.646 38.8263 409.685 38.5925 410.631 38.2119C411.57 37.8347 412.371 37.3308 413.323 36.7L412.218 35.0327ZM421.141 19.3631C419.386 24.7011 418.159 27.9342 416.863 30.1879C415.6 32.3836 414.264 33.6602 412.213 35.0358L413.327 36.6968C415.578 35.187 417.151 33.6983 418.596 31.1851C420.009 28.7298 421.291 25.3102 423.041 19.9879L421.141 19.3631Z" fill="black" mask="url(#path-1-inside-1_12_80)"/>
</svg>
