<svg width="617" height="696" viewBox="0 0 617 696" fill="none" xmlns="http://www.w3.org/2000/svg">
<mask id="path-1-inside-1_9_41" fill="white">
<path fill-rule="evenodd" clip-rule="evenodd" d="M234.091 19.6756C237.915 8.05345 240.305 3.5649 243.412 1.64124C245.882 0.118338 247.794 0.0381858 306.827 0.0381858C365.78 0.0381858 367.772 0.118338 370.162 1.64124C373.508 3.64506 375.42 7.33208 379.722 19.5954C382.67 28.2519 383.785 30.4962 386.573 33.3015C388.406 35.1451 391.274 37.0687 392.867 37.6298C393.325 37.7614 394.135 37.887 395.195 38H604C611.18 38 617 43.8203 617 51V683C617 690.18 611.18 696 604 696H0V51C0 43.8203 5.8203 38 13 38H219.096C221.862 37.678 222.872 37.1242 224.77 35.8664C229.072 32.9809 230.586 30.3359 234.091 19.6756Z"/>
</mask>
<path fill-rule="evenodd" clip-rule="evenodd" d="M234.091 19.6756C237.915 8.05345 240.305 3.5649 243.412 1.64124C245.882 0.118338 247.794 0.0381858 306.827 0.0381858C365.78 0.0381858 367.772 0.118338 370.162 1.64124C373.508 3.64506 375.42 7.33208 379.722 19.5954C382.67 28.2519 383.785 30.4962 386.573 33.3015C388.406 35.1451 391.274 37.0687 392.867 37.6298C393.325 37.7614 394.135 37.887 395.195 38H604C611.18 38 617 43.8203 617 51V683C617 690.18 611.18 696 604 696H0V51C0 43.8203 5.8203 38 13 38H219.096C221.862 37.678 222.872 37.1242 224.77 35.8664C229.072 32.9809 230.586 30.3359 234.091 19.6756Z" fill="#D9D9D9"/>
<path d="M243.412 1.64124L242.887 0.790058L242.886 0.791009L243.412 1.64124ZM234.091 19.6756L233.141 19.363L233.141 19.3632L234.091 19.6756ZM370.162 1.64124L369.625 2.48458L369.636 2.49203L369.648 2.49916L370.162 1.64124ZM379.722 19.5954L380.669 19.2731L380.666 19.2644L379.722 19.5954ZM386.573 33.3015L385.864 34.0065L385.864 34.0065L386.573 33.3015ZM392.867 37.6298L392.535 38.573L392.563 38.5828L392.591 38.5909L392.867 37.6298ZM395.195 38L395.089 38.9944L395.142 39H395.195V38ZM0 696H-1V697H0V696ZM219.096 38V39H219.154L219.212 38.9933L219.096 38ZM224.77 35.8664L225.323 36.7001L225.327 36.6969L224.77 35.8664ZM242.886 0.791009C241.119 1.88524 239.64 3.66331 238.133 6.56016C236.63 9.45085 235.057 13.5425 233.141 19.363L235.041 19.9881C236.95 14.1865 238.483 10.2229 239.908 7.48281C241.329 4.74894 242.599 3.32091 243.939 2.49147L242.886 0.791009ZM306.827 -0.961814C277.319 -0.961814 262.065 -0.941869 253.883 -0.731043C245.777 -0.522206 244.393 -0.138027 242.887 0.790059L243.937 2.49242C244.902 1.8976 245.708 1.48026 253.934 1.26829C262.084 1.05832 277.302 1.03819 306.827 1.03819V-0.961814ZM370.699 0.797895C369.227 -0.140217 367.828 -0.522419 359.732 -0.731043C351.549 -0.941869 336.296 -0.961814 306.827 -0.961814V1.03819C336.312 1.03819 351.531 1.05832 359.68 1.26829C367.915 1.48047 368.707 1.89979 369.625 2.48458L370.699 0.797895ZM380.666 19.2644C378.516 13.1374 376.941 9.08282 375.467 6.30265C373.976 3.48915 372.55 1.9055 370.676 0.78332L369.648 2.49916C371.12 3.3808 372.323 4.64257 373.7 7.23937C375.094 9.86951 376.626 13.7902 378.778 19.9265L380.666 19.2644ZM387.283 32.5966C384.672 29.9705 383.616 27.9285 380.669 19.2731L378.775 19.9178C381.723 28.5754 382.898 31.0219 385.864 34.0065L387.283 32.5966ZM393.199 36.6866C392.524 36.4487 391.492 35.884 390.373 35.1206C389.268 34.366 388.144 33.4637 387.283 32.5966L385.864 34.0065C386.835 34.9829 388.062 35.9642 389.246 36.7726C390.418 37.5721 391.617 38.2498 392.535 38.573L393.199 36.6866ZM395.301 37.0056C394.24 36.8925 393.508 36.7737 393.143 36.6687L392.591 38.5909C393.141 38.7491 394.029 38.8814 395.089 38.9944L395.301 37.0056ZM395.195 39H604V37H395.195V39ZM604 39C610.627 39 616 44.3726 616 51H618C618 43.268 611.732 37 604 37V39ZM616 51V683H618V51H616ZM616 683C616 689.627 610.627 695 604 695V697C611.732 697 618 690.732 618 683H616ZM604 695H0V697H604V695ZM1 696V51H-1V696H1ZM1 51C1 44.3726 6.37258 39 13 39V37C5.26801 37 -1 43.268 -1 51H1ZM13 39H219.096V37H13V39ZM224.218 35.0328C223.272 35.6597 222.618 36.0617 221.885 36.3563C221.161 36.6476 220.312 36.8517 218.981 37.0067L219.212 38.9933C220.646 38.8263 221.685 38.5925 222.631 38.212C223.57 37.8347 224.371 37.3309 225.323 36.7001L224.218 35.0328ZM233.141 19.3632C231.386 24.7012 230.159 27.9343 228.863 30.188C227.6 32.3837 226.264 33.6603 224.213 35.0359L225.327 36.6969C227.578 35.1871 229.151 33.6984 230.596 31.1852C232.009 28.7299 233.291 25.3103 235.041 19.988L233.141 19.3632Z" fill="black" mask="url(#path-1-inside-1_9_41)"/>
</svg>
