<svg width="617" height="696" viewBox="0 0 617 696" fill="none" xmlns="http://www.w3.org/2000/svg">
<mask id="path-1-inside-1_9_45" fill="white">
<path fill-rule="evenodd" clip-rule="evenodd" d="M45.0913 19.6756C48.9153 8.05345 51.3053 3.5649 54.4123 1.64124C56.882 0.118338 58.794 0.0381858 117.827 0.0381858C176.78 0.0381858 178.772 0.118338 181.162 1.64124C184.508 3.64506 186.42 7.33208 190.722 19.5954C193.67 28.2519 194.785 30.4962 197.573 33.3015C199.406 35.1451 202.274 37.0687 203.867 37.6298C204.325 37.7614 205.135 37.887 206.195 38H604C611.18 38 617 43.8203 617 51V683C617 690.18 611.18 696 604 696H0V51C0 43.8203 5.8203 38 13 38H30.0963C32.8617 37.678 33.872 37.1242 35.7703 35.8664C40.0723 32.9809 41.586 30.3359 45.0913 19.6756Z"/>
</mask>
<path fill-rule="evenodd" clip-rule="evenodd" d="M45.0913 19.6756C48.9153 8.05345 51.3053 3.5649 54.4123 1.64124C56.882 0.118338 58.794 0.0381858 117.827 0.0381858C176.78 0.0381858 178.772 0.118338 181.162 1.64124C184.508 3.64506 186.42 7.33208 190.722 19.5954C193.67 28.2519 194.785 30.4962 197.573 33.3015C199.406 35.1451 202.274 37.0687 203.867 37.6298C204.325 37.7614 205.135 37.887 206.195 38H604C611.18 38 617 43.8203 617 51V683C617 690.18 611.18 696 604 696H0V51C0 43.8203 5.8203 38 13 38H30.0963C32.8617 37.678 33.872 37.1242 35.7703 35.8664C40.0723 32.9809 41.586 30.3359 45.0913 19.6756Z" fill="#D9D9D9"/>
<path d="M54.4123 1.64124L53.8875 0.790058L53.8859 0.791009L54.4123 1.64124ZM45.0913 19.6756L44.1414 19.363L44.1414 19.3632L45.0913 19.6756ZM181.162 1.64124L180.625 2.48458L180.636 2.49203L180.648 2.49916L181.162 1.64124ZM190.722 19.5954L191.669 19.2731L191.666 19.2644L190.722 19.5954ZM197.573 33.3015L198.283 32.5966L198.283 32.5966L197.573 33.3015ZM203.867 37.6298L203.535 38.573L203.563 38.5828L203.591 38.5909L203.867 37.6298ZM206.195 38L206.089 38.9944L206.142 39H206.195V38ZM0 696H-1V697H0V696ZM30.0963 38V39H30.1543L30.2119 38.9933L30.0963 38ZM35.7703 35.8664L36.3227 36.7001L36.3274 36.6969L35.7703 35.8664ZM53.8859 0.791009C52.1186 1.88524 50.6397 3.66331 49.1335 6.56016C47.6304 9.45085 46.0565 13.5425 44.1414 19.363L46.0412 19.9881C47.9501 14.1865 49.4832 10.2229 50.9079 7.48281C52.3294 4.74894 53.5991 3.32091 54.9388 2.49147L53.8859 0.791009ZM117.827 -0.961814C88.3186 -0.961814 73.065 -0.941869 64.8827 -0.731043C56.7775 -0.522206 55.3925 -0.138027 53.8875 0.790059L54.9372 2.49242C55.9018 1.8976 56.7077 1.48026 64.9342 1.26829C73.0835 1.05832 88.3024 1.03819 117.827 1.03819V-0.961814ZM181.699 0.797896C180.227 -0.140217 178.828 -0.522419 170.732 -0.731043C162.549 -0.941869 147.296 -0.961814 117.827 -0.961814V1.03819C147.312 1.03819 162.531 1.05832 170.68 1.26829C178.915 1.48047 179.707 1.89979 180.625 2.48458L181.699 0.797896ZM191.666 19.2644C189.516 13.1374 187.941 9.08282 186.467 6.30265C184.976 3.48914 183.55 1.90549 181.676 0.783318L180.648 2.49916C182.12 3.3808 183.323 4.64257 184.7 7.23937C186.094 9.86951 187.626 13.7902 189.778 19.9265L191.666 19.2644ZM198.283 32.5966C195.672 29.9705 194.616 27.9285 191.669 19.2731L189.775 19.9178C192.723 28.5754 193.898 31.0219 196.864 34.0065L198.283 32.5966ZM204.199 36.6866C203.524 36.4487 202.492 35.884 201.373 35.1206C200.268 34.366 199.144 33.4637 198.283 32.5966L196.864 34.0065C197.835 34.9829 199.062 35.9642 200.246 36.7726C201.418 37.5721 202.617 38.2498 203.535 38.573L204.199 36.6866ZM206.301 37.0056C205.24 36.8925 204.508 36.7737 204.143 36.6687L203.591 38.5909C204.141 38.7491 205.029 38.8814 206.089 38.9944L206.301 37.0056ZM206.195 39H604V37H206.195V39ZM604 39C610.627 39 616 44.3726 616 51H618C618 43.268 611.732 37 604 37V39ZM616 51V683H618V51H616ZM616 683C616 689.627 610.627 695 604 695V697C611.732 697 618 690.732 618 683H616ZM604 695H0V697H604V695ZM1 696V51H-1V696H1ZM1 51C1 44.3726 6.37258 39 13 39V37C5.26801 37 -1 43.268 -1 51H1ZM13 39H30.0963V37H13V39ZM35.218 35.0328C34.2718 35.6597 33.6182 36.0617 32.8854 36.3563C32.1609 36.6476 31.3119 36.8517 29.9806 37.0067L30.2119 38.9933C31.646 38.8263 32.6849 38.5925 33.6315 38.212C34.5698 37.8347 35.3705 37.3309 36.3227 36.7001L35.218 35.0328ZM44.1414 19.3632C42.3861 24.7012 41.1591 27.9343 39.8628 30.188C38.5997 32.3837 37.2643 33.6603 35.2133 35.0359L36.3274 36.6969C38.5784 35.1871 40.1508 33.6984 41.5964 31.1852C43.0087 28.7299 44.2912 25.3103 46.0413 19.988L44.1414 19.3632Z" fill="black" mask="url(#path-1-inside-1_9_45)"/>
</svg>
