<svg version="1.1" id="Layer_1" xmlns="http://www.w3.org/2000/svg" xmlns:xlink="http://www.w3.org/1999/xlink" x="0px" y="0px"
	 width="100%" viewBox="0 0 816 816" enable-background="new 0 0 816 816" xml:space="preserve">
<path fill="#000000" opacity="1.000000" stroke="none" 
	d="
M446.978210,634.030884 
	C418.936279,651.856323 388.814636,663.283325 356.546082,669.401123 
	C336.454712,673.210327 316.205994,674.139038 295.901154,673.200378 
	C265.531647,671.796265 236.238312,665.003113 208.440048,652.705750 
	C143.473175,623.965942 97.727425,576.376709 71.147453,510.559357 
	C61.885597,487.625153 56.706337,463.669006 54.507957,438.943085 
	C44.983845,331.822205 103.562302,232.201035 197.038391,186.543991 
	C224.071854,173.339890 252.520996,164.704178 282.404846,161.892975 
	C354.042480,155.153915 418.177582,174.129761 474.165405,219.693573 
	C475.668823,220.917099 477.534088,221.901993 478.158661,224.054688 
	C477.380493,226.032639 475.368896,226.285416 473.809601,227.052887 
	C445.401672,241.034882 421.257751,260.328522 401.679596,285.215240 
	C399.028259,288.585510 397.242737,289.351685 393.290924,286.820221 
	C371.301331,272.734283 347.256195,264.980682 321.090576,263.065735 
	C244.315536,257.446747 174.592972,310.001831 158.574921,386.446899 
	C141.952576,465.775970 191.356598,546.226318 270.031708,567.086426 
	C314.350800,578.837280 356.139374,571.861755 394.894836,547.340637 
	C397.868927,545.458923 399.600586,545.243591 401.931976,548.169983 
	C422.099609,573.485291 446.918274,592.978027 476.093140,606.957703 
	C477.117767,607.448608 478.292816,607.829773 479.065216,609.940735 
	C469.429993,618.823730 458.610748,626.651611 446.978210,634.030884 
z"/>
<path fill="#000000" opacity="1.000000" stroke="none" 
	d="
M753.444214,444.297699 
	C748.878662,475.845215 737.196350,504.033417 718.385925,529.161499 
	C688.051392,569.684204 647.703613,594.477600 597.953552,602.988647 
	C520.939270,616.164062 445.135925,580.987610 404.532959,514.080811 
	C389.890991,489.953461 381.455139,463.783783 378.535248,435.677277 
	C370.069855,354.189880 414.527252,278.530731 486.856415,244.900726 
	C516.771667,230.991394 548.373657,225.204254 581.105225,227.913391 
	C668.687622,235.162445 735.077393,298.221619 751.462646,377.435364 
	C756.023621,399.485443 756.763672,421.596375 753.444214,444.297699 
M574.793091,530.035156 
	C579.410339,529.486389 584.087158,529.239685 588.635864,528.343140 
	C648.983765,516.448364 689.037903,458.561401 678.789001,398.176849 
	C668.357910,336.718933 610.391663,295.360260 549.018066,305.113800 
	C489.704834,314.539917 446.507660,369.690796 454.561127,431.704468 
	C458.701263,463.584320 474.309753,489.404663 500.261200,508.527649 
	C522.094849,524.616394 546.755066,531.796997 574.793091,530.035156 
z"/>
<path fill="#000000" opacity="1.000000" stroke="none" 
	d="
M592.070984,457.171844 
	C562.026672,475.232574 524.770996,458.390991 519.961975,424.298126 
	C515.362427,391.690552 541.339111,370.875488 565.461426,370.403442 
	C585.628540,370.008759 609.081421,384.011719 612.925964,409.838928 
	C615.842285,429.430206 608.922302,445.491119 592.070984,457.171844 
M549.784973,404.352142 
	C545.736145,410.511108 544.344604,416.965454 546.968933,424.157806 
	C550.767395,434.567719 562.052612,440.567566 572.551086,437.511993 
	C583.793396,434.239899 590.464539,423.081451 587.721130,412.062531 
	C585.744751,404.124176 580.583984,398.953552 572.981445,396.560120 
	C563.891907,393.698517 556.431335,397.001221 549.784973,404.352142 
z"/>
</svg>